HIERARCHY
ROOT Hips
{
	OFFSET 0.00000 0.00000 0.00000
	CHANNELS 6 Xposition Yposition Zposition Yrotation Zrotation Xrotation 
	JOINT Lumbar
	{
		OFFSET 0 0 0
		CHANNELS 3 Zrotation Xrotation Yrotation
		JOINT Neck
		{
			OFFSET 0.00 0.2701 0.00
			CHANNELS 3 Zrotation Xrotation Yrotation
			End Site
			{
				OFFSET 0.00 0.1379 0.00
			}
		}
		JOINT RightShoulder
		{
			OFFSET 0.0119 0.2289 0.1181
			CHANNELS 3 Zrotation Xrotation Yrotation
			JOINT RightElbow
			{
				OFFSET 0.00 -0.1475 0.00
				CHANNELS 2 Zrotation Yrotation
				JOINT RightWrist
				{
					OFFSET 0.00 -0.1605 0.00
					CHANNELS 2 Zrotation Xrotation
					End Site
					{
						OFFSET 0.0040 -0.1068 0.0006
					}
				}
			}
		}
		JOINT LeftShoulder
		{
			OFFSET 0.0119 0.2289 -0.1181
			CHANNELS 3 Zrotation Xrotation Yrotation
			JOINT LeftElbow
			{
				OFFSET 0.00 -0.1475 0.00
				CHANNELS 2 Zrotation Yrotation
				JOINT LeftWrist
				{
					OFFSET 0.00 -0.1605 0.00
					CHANNELS 2 Zrotation Xrotation
					End Site
					{
						OFFSET 0.0040 -0.1068 -0.0006
					}
				}
			}
		}
	}
	JOINT RightHip
	{
		OFFSET 0.0316 -0.0424 0.0458
		CHANNELS 3 Zrotation Xrotation Yrotation
		JOINT RightKnee
		{
			OFFSET 0.00 -0.2438 0.00
			CHANNELS 1 Zrotation
			JOINT RightAnkle
			{
				OFFSET 0.00 -0.2449 0.00
				CHANNELS 3 Zrotation Xrotation Yrotation
				End Site
				{
					OFFSET 0.1237 -0.0542 0.0051
				}
			}
		}
	}
	JOINT LeftHip
	{
		OFFSET 0.0316 -0.0424 -0.0458
		CHANNELS 3 Zrotation Xrotation Yrotation
		JOINT LeftKnee
		{
			OFFSET 0.00 -0.2438 0.00
			CHANNELS 1 Zrotation
			JOINT LeftAnkle
			{
				OFFSET 0.00 -0.2449 0.00
				CHANNELS 3 Zrotation Xrotation Yrotation
				End Site
				{
					OFFSET 0.1237 -0.0542 -0.0051
				}
			}
		}
	}
}
MOTION
Frames: 11
Frame Time: 0.02
-0 0.57926 -0 179.77137 0 2.81612 8.80393 -1.12683 -1.13372 -29.8939 2.57474 1.63469 21.74735 -12.99161 5.83348 11.50517 82.44153 0.56134 1.5208 22.92788 5.14054 -2.51859 8.71237 -72.78928 -6.42241 -0.61847 0.1548 2.8509 10.65101 -21.55067 12.10772 -10.78447 -15.1873 0.23593 -4.2596 -7.56136 -16.2184 9.24674 8.783 13.67865
0.00022 0.57929 4e-05 179.70546 0 2.81577 8.74938 -1.13889 -1.15897 -29.84125 2.60262 1.67744 21.65189 -13.02433 5.71081 11.49722 82.42863 0.43055 1.52001 22.84829 5.0744 -2.26491 8.68555 -72.6224 -6.59715 -0.53628 0.18653 2.84831 10.69887 -21.55821 12.09493 -10.78148 -15.18146 0.22981 -4.25943 -7.50812 -16.17722 9.22569 8.77093 13.67828
0.00044 0.57931 8e-05 179.63982 0 2.81531 8.69505 -1.1509 -1.1842 -29.78956 2.63065 1.7203 21.5578 -13.0572 5.58916 11.48938 82.41558 0.30062 1.51916 22.76989 5.00791 -2.01284 8.65876 -72.4566 -6.77021 -0.45539 0.21813 2.84584 10.74671 -21.56559 12.08208 -10.77835 -15.17573 0.22388 -4.25918 -7.45509 -16.13641 9.20478 8.75883 13.67798
0.00067 0.57934 0.00011 179.57467 0 2.81464 8.64115 -1.16295 -1.20971 -29.74061 2.65926 1.7641 21.46762 -13.09037 5.46828 11.48159 82.4019 0.1728 1.51811 22.69475 4.9391 -1.76543 8.63212 -72.29347 -6.93832 -0.3791 0.24959 2.84376 10.79508 -21.57276 12.06901 -10.77473 -15.17079 0.21848 -4.25878 -7.40252 -16.09644 9.18429 8.74646 13.67792
0.00088 0.57936 0.00015 179.50697 0 2.81538 8.58504 -1.17494 -1.23386 -29.67645 2.68445 1.80301 21.35598 -13.12122 5.34076 11.47315 82.39171 0.03374 1.5182 22.60146 4.88226 -1.49414 8.60506 -72.11612 -7.13275 -0.27866 0.28185 2.83953 10.84084 -21.5815 12.0573 -10.77386 -15.16218 0.21004 -4.2594 -7.34765 -16.05172 9.16164 8.73546 13.67656
0.00111 0.57939 0.00019 179.44471 0 2.81294 8.53364 -1.18694 -1.26075 -29.64501 2.71707 1.85219 21.29036 -13.15741 5.22914 11.46633 82.37406 -0.08135 1.51583 22.54726 4.80037 -1.27307 8.57865 -71.96908 -7.27125 -0.22925 0.31235 2.83991 10.89192 -21.58663 12.04259 -10.76707 -15.16098 0.20821 -4.25771 -7.2976 -16.01729 9.14352 8.72165 13.67795
0.00137 0.57942 0.00021 179.39626 0 2.80285 8.49443 -1.20027 -1.29719 -29.70212 2.77016 1.93262 21.35023 -13.20609 5.14505 11.46205 82.33513 -0.13149 1.50669 22.59827 4.64263 -1.19531 8.55562 -71.90446 -7.25338 -0.32623 0.33897 2.85296 10.96081 -21.58362 12.01997 -10.74396 -15.18374 0.22388 -4.25058 -7.26064 -16.00992 9.13827 8.69873 13.6873
0.00164 0.57944 0.00023 179.3534 0 2.78929 8.46008 -1.21335 -1.33608 -29.79258 2.83079 2.02303 21.45687 -13.26065 5.07965 11.45971 82.28876 -0.1572 1.49508 22.6892 4.46059 -1.16785 8.53295 -71.87063 -7.17892 -0.47411 0.36364 2.87063 11.03446 -21.57653 11.99424 -10.71488 -15.21316 0.24641 -4.24096 -7.22852 -16.01325 9.13754 8.67321 13.6994
0.0019 0.57947 0.00025 179.30882 0 2.77656 8.42401 -1.22573 -1.37254 -29.8691 2.88807 2.10707 21.54334 -13.31398 5.01661 11.4578 82.24615 -0.19336 1.48451 22.76388 4.29389 -1.11355 8.50899 -71.82339 -7.1322 -0.59485 0.38863 2.88631 11.10416 -21.57018 11.96963 -10.6884 -15.23757 0.2663 -4.23183 -7.1943 -16.01246 9.13445 8.64973 13.70994
0.00217 0.5795 0.00026 179.26109 0 2.76706 8.38592 -1.24163 -1.41447 -29.94076 2.94507 2.19869 21.62551 -13.36106 4.90891 11.45056 82.20185 -0.23242 1.47413 22.83104 4.10934 -1.07382 8.48966 -71.77353 -7.07891 -0.73124 0.41612 2.90175 11.18189 -21.56883 11.94616 -10.66218 -15.27121 0.28408 -4.22533 -7.15975 -16.00823 9.13253 8.6226 13.72163
0.00243 0.57953 0.00029 179.22086 0 2.74996 8.35315 -1.25003 -1.44571 -30.0301 3.00439 2.27707 21.72736 -13.42276 4.89726 11.45464 82.15942 -0.25944 1.46297 22.92276 3.95586 -1.0185 8.46095 -71.73668 -7.02337 -0.84871 0.43781 2.91851 11.24336 -21.55571 11.91972 -10.63427 -15.2861 0.30799 -4.21285 -7.1269 -16.01407 9.12941 8.60251 13.73178
